<?xml version="1.0" standalone="no"?>
<!DOCTYPE svg PUBLIC "-//W3C//DTD SVG 20010904//EN"
 "http://www.w3.org/TR/2001/REC-SVG-20010904/DTD/svg10.dtd">
<svg version="1.0" xmlns="http://www.w3.org/2000/svg"
 width="500.000000pt" height="500.000000pt" viewBox="0 0 500.000000 500.000000"
 preserveAspectRatio="xMidYMid meet">
<metadata>
Created by potrace 1.11, written by Peter Selinger 2001-2013
</metadata>
<g transform="translate(0.000000,500.000000) scale(0.100000,-0.100000)"
fill="#000000" stroke="none">
<path d="M1195 3223 c-94 -27 -115 -40 -117 -70 -5 -91 45 -191 124 -249 l29
-22 -31 -22 c-35 -25 -65 -79 -76 -135 -4 -24 -21 -55 -40 -77 -33 -37 -54
-91 -54 -138 0 -14 13 -52 29 -85 16 -34 37 -89 47 -123 23 -81 62 -126 162
-185 43 -26 82 -47 85 -47 4 0 27 -14 51 -32 79 -55 183 -50 262 13 20 16 41
29 46 29 6 0 30 14 55 30 24 17 48 30 54 30 5 0 29 20 54 44 34 35 48 59 65
115 11 38 34 95 50 127 17 31 30 70 30 88 0 41 -41 125 -74 153 -17 16 -26 33
-26 53 0 45 -24 94 -63 130 l-36 32 27 24 c83 72 109 119 118 213 l7 60 -34
15 c-89 38 -167 49 -244 34 -91 -17 -142 -53 -161 -110 -5 -18 -9 -15 -31 21
-47 80 -189 118 -308 84z m96 -33 c14 -8 19 -7 19 1 0 8 4 8 15 -1 8 -6 19 -9
25 -5 6 4 18 1 26 -6 8 -6 17 -9 21 -5 3 3 15 -2 26 -11 10 -10 22 -16 25 -14
13 7 41 -54 41 -90 1 -56 -20 -67 -67 -36 -56 36 -182 99 -182 89 0 -4 28 -24
63 -45 87 -51 132 -91 124 -110 -15 -39 -130 -80 -141 -50 -3 8 -11 11 -17 7
-7 -4 -17 0 -23 8 -6 8 -19 17 -29 21 -10 4 -16 11 -12 16 3 5 -3 12 -14 16
-17 5 -30 27 -27 46 1 4 -7 16 -17 26 -9 11 -14 22 -11 26 3 3 2 12 -2 19 -5
7 -9 25 -10 41 -1 22 2 27 23 27 16 0 22 4 17 12 -5 8 2 9 24 5 20 -4 32 -2
32 4 0 6 9 9 20 6 11 -3 20 -1 20 4 0 12 7 11 31 -1z m472 2 c14 7 22 7 25 0
1 -5 12 -8 22 -5 11 3 20 0 20 -6 0 -6 12 -8 32 -4 22 4 29 3 24 -5 -5 -8 1
-12 17 -12 22 0 24 -4 22 -32 -2 -18 -4 -35 -5 -38 -2 -3 -4 -9 -5 -15 -6 -42
-71 -135 -94 -135 -6 0 -11 -4 -11 -10 0 -5 -9 -10 -19 -10 -11 0 -23 -4 -26
-10 -18 -28 -114 1 -136 42 -11 20 -8 25 27 55 21 18 65 46 96 63 67 36 87 59
31 35 -21 -9 -45 -19 -53 -23 -8 -3 -43 -23 -78 -45 -71 -45 -92 -40 -92 21 0
41 35 103 54 96 7 -3 16 2 20 11 3 10 12 15 21 11 8 -3 17 -1 21 5 3 5 14 7
24 4 10 -3 22 0 26 7 6 9 9 9 12 0 3 -9 9 -9 25 0z"/>
<path d="M520 3139 c0 -5 -4 -7 -10 -4 -16 10 -81 -6 -73 -18 4 -6 0 -8 -11
-4 -19 7 -88 -22 -80 -35 3 -4 -3 -5 -12 -1 -14 5 -16 3 -11 -11 4 -9 3 -15
-2 -11 -13 7 -42 -5 -35 -16 3 -5 -1 -6 -9 -3 -14 5 -127 -100 -127 -118 0 -6
-7 -16 -17 -23 -9 -7 -16 -26 -16 -44 0 -17 -3 -27 -7 -21 -9 15 -20 -12 -20
-46 0 -14 -4 -23 -9 -20 -5 3 -9 -4 -9 -17 0 -12 -5 -44 -12 -72 -7 -31 -8
-75 -4 -115 4 -36 7 -69 6 -73 -2 -5 3 -5 9 -1 7 4 9 0 5 -13 -4 -11 -2 -33 4
-48 8 -22 13 -25 24 -16 10 9 16 9 21 1 4 -6 1 -9 -6 -8 -7 2 -14 -4 -16 -12
-4 -20 35 -83 46 -75 5 3 13 0 17 -6 4 -8 3 -9 -4 -5 -26 16 -10 -13 32 -58
30 -33 48 -46 58 -41 7 5 10 4 5 0 -11 -12 23 -45 46 -45 11 0 17 -3 13 -7
-11 -11 90 -52 116 -46 18 4 20 3 8 -6 -13 -9 -12 -11 5 -12 11 -1 38 -4 60
-7 49 -7 133 -6 203 1 66 6 174 46 165 60 -3 5 -2 7 4 4 13 -8 63 15 62 28 -3
23 2 35 12 35 8 0 8 -5 -1 -15 -22 -27 5 -16 32 13 26 27 26 28 28 205 l1 177
-80 0 -80 0 -3 -147 -3 -147 -30 -16 c-16 -8 -32 -17 -35 -20 -3 -3 -16 -7
-30 -9 -13 -1 -33 -9 -44 -17 -11 -8 -25 -14 -31 -14 -5 0 -3 5 5 11 11 8 8 9
-15 5 -65 -14 -126 -16 -119 -4 4 6 1 9 -7 6 -8 -3 -31 1 -51 8 -21 7 -38 11
-38 8 0 -2 -18 7 -40 21 -21 13 -45 23 -52 21 -7 -1 -9 -1 -5 2 4 2 3 10 -4
18 -6 8 -16 11 -22 7 -5 -3 -7 -2 -4 4 3 5 -11 28 -31 50 -20 22 -38 49 -39
59 -1 11 -7 39 -13 64 -13 53 -17 156 -6 188 5 14 3 29 -4 37 -7 8 -10 20 -7
27 3 7 6 4 7 -7 1 -19 1 -19 15 -2 7 11 11 26 8 35 -4 9 -2 13 4 9 6 -4 14 0
17 9 4 10 2 13 -7 9 -6 -4 -2 2 11 13 14 13 20 27 16 39 -4 12 -3 14 3 5 7 -9
15 -6 33 14 14 14 40 34 58 46 18 11 31 23 28 25 -3 3 -18 -2 -33 -12 -17 -11
-23 -13 -16 -4 6 8 13 19 15 24 1 6 10 8 18 7 30 -7 73 -2 94 11 13 8 41 12
74 10 29 -2 62 2 72 7 15 8 20 8 20 -1 0 -7 9 -9 24 -5 14 3 27 2 30 -3 3 -5
20 -12 38 -15 18 -3 53 -19 77 -35 25 -17 49 -27 55 -24 6 4 6 8 -2 11 -7 2
-12 8 -12 14 0 6 6 8 14 5 18 -7 57 47 50 70 -4 14 -3 15 4 4 7 -10 11 -10 17
-1 4 6 5 12 4 14 -2 1 -20 13 -39 27 -70 51 -193 96 -230 84 -10 -3 -21 -2
-24 3 -8 14 -146 15 -146 1z m305 -49 c3 -5 1 -10 -4 -10 -6 0 -11 5 -11 10 0
6 2 10 4 10 3 0 8 -4 11 -10z m-385 -20 c18 -12 2 -12 -25 0 -13 6 -15 9 -5 9
8 0 22 -4 30 -9z m360 6 c0 -2 -7 -7 -16 -10 -8 -3 -12 -2 -9 4 6 10 25 14 25
6z m20 -16 c-8 -5 -19 -10 -25 -10 -5 0 -3 5 5 10 8 5 20 10 25 10 6 0 3 -5
-5 -10z m65 0 c3 -5 1 -10 -4 -10 -6 0 -11 5 -11 10 0 6 2 10 4 10 3 0 8 -4
11 -10z m-498 -6 c-3 -3 -12 -4 -19 -1 -8 3 -5 6 6 6 11 1 17 -2 13 -5z m-117
-38 c0 -3 -4 -8 -10 -11 -5 -3 -10 -1 -10 4 0 6 5 11 10 11 6 0 10 -2 10 -4z
m293 -3 c-7 -2 -19 -2 -25 0 -7 3 -2 5 12 5 14 0 19 -2 13 -5z m140 0 c-7 -2
-19 -2 -25 0 -7 3 -2 5 12 5 14 0 19 -2 13 -5z m147 -53 c0 -5 -5 -10 -11 -10
-5 0 -7 5 -4 10 3 6 8 10 11 10 2 0 4 -4 4 -10z m-497 -7 c-7 -2 -19 -2 -25 0
-7 3 -2 5 12 5 14 0 19 -2 13 -5z m507 -23 c0 -5 -2 -10 -4 -10 -3 0 -8 5 -11
10 -3 6 -1 10 4 10 6 0 11 -4 11 -10z m-530 -40 c0 -5 -4 -10 -10 -10 -5 0
-10 5 -10 10 0 6 5 10 10 10 6 0 10 -4 10 -10z m-109 -103 c-10 -9 -11 -8 -5
6 3 10 9 15 12 12 3 -3 0 -11 -7 -18z m-121 -44 c-11 -17 -11 -17 -6 0 3 10 7
26 7 35 1 15 2 15 6 0 2 -10 -1 -25 -7 -35z m12 -236 c3 -14 0 -24 -7 -24 -7
0 -10 10 -7 24 2 13 6 23 7 23 1 0 5 -10 7 -23z m115 -19 c-3 -7 -5 -2 -5 12
0 14 2 19 5 13 2 -7 2 -19 0 -25z m23 -51 c0 -5 -4 -5 -10 -2 -5 3 -10 14 -10
23 0 15 2 15 10 2 5 -8 10 -19 10 -23z m-143 1 c-3 -8 -6 -5 -6 6 -1 11 2 17
5 13 3 -3 4 -12 1 -19z m161 -58 c7 -11 11 -20 9 -20 -2 0 -12 9 -22 20 -10
11 -14 20 -9 20 5 0 15 -9 22 -20z m-20 -45 c-3 -3 -9 2 -12 12 -6 14 -5 15 5
6 7 -7 10 -15 7 -18z m-40 -15 c-7 -10 -14 -17 -17 -15 -4 4 18 35 25 35 2 0
-1 -9 -8 -20z m189 -56 c-3 -3 -12 -4 -19 -1 -8 3 -5 6 6 6 11 1 17 -2 13 -5z
m433 2 c0 -2 -7 -7 -16 -10 -8 -3 -12 -2 -9 4 6 10 25 14 25 6z m-619 -23 c13
-16 12 -17 -3 -4 -10 7 -18 15 -18 17 0 8 8 3 21 -13z m756 -9 c-3 -3 -12 -4
-19 -1 -8 3 -5 6 6 6 11 1 17 -2 13 -5z m-314 -31 c-13 -2 -35 -2 -50 0 -16 2
-5 4 22 4 28 0 40 -2 28 -4z m-166 -19 c-3 -3 -12 -4 -19 -1 -8 3 -5 6 6 6 11
1 17 -2 13 -5z m170 -10 c-3 -3 -12 -4 -19 -1 -8 3 -5 6 6 6 11 1 17 -2 13 -5z
m198 -14 c-3 -5 -12 -10 -18 -10 -7 0 -6 4 3 10 19 12 23 12 15 0z m-415 -10
c-8 -5 -22 -9 -30 -9 -10 0 -8 3 5 9 27 12 43 12 25 0z m-40 -22 c10 -6 7 -7
-10 -2 -14 3 -32 11 -40 16 -10 6 -7 7 10 2 14 -3 32 -11 40 -16z"/>
<path d="M3260 2883 c0 -4 -15 -8 -32 -9 -46 -1 -81 -10 -117 -28 -34 -18 -41
-29 -13 -20 13 5 14 4 3 -4 -8 -6 -20 -8 -27 -5 -19 7 -27 -16 -13 -35 11 -14
11 -15 -1 -4 -19 16 -33 15 -27 -2 3 -8 -1 -13 -10 -12 -9 0 -18 -5 -21 -13
-3 -10 0 -11 9 -5 12 7 12 5 0 -9 -15 -19 -26 -23 -15 -5 5 7 3 8 -5 4 -7 -5
-10 -15 -7 -23 3 -8 2 -11 -4 -8 -11 7 -39 -45 -33 -62 3 -7 -1 -13 -7 -13 -7
0 -10 -8 -7 -20 3 -11 2 -20 -3 -20 -4 0 -8 -37 -9 -83 -1 -60 3 -94 16 -122
9 -22 18 -44 18 -50 4 -41 114 -165 148 -165 9 0 17 -4 17 -9 0 -5 29 -17 65
-26 79 -22 156 -15 223 19 54 28 122 97 122 123 0 15 -2 16 -10 3 -8 -13 -10
-13 -10 1 0 9 7 19 15 23 16 6 16 1 19 -89 1 -23 6 -39 12 -38 7 1 9 -8 6 -25
l-6 -27 -7 25 c-6 20 -8 15 -8 -20 1 -25 0 -49 -1 -55 -1 -5 -2 -19 -1 -30 2
-17 0 -17 -8 -5 -9 13 -11 12 -11 -4 0 -23 -83 -106 -106 -106 -8 0 -13 -4
-10 -8 2 -4 -44 -9 -102 -10 -106 -3 -108 -2 -183 35 l-76 38 -26 -41 c-42
-64 -42 -68 0 -97 47 -32 132 -69 143 -62 5 3 10 0 12 -6 6 -18 206 -18 217 0
5 8 16 11 26 8 18 -7 116 38 153 71 14 13 21 26 16 33 -4 7 -3 9 4 5 13 -8 66
59 57 74 -3 5 -1 10 5 10 7 0 9 7 6 16 -3 8 -2 12 3 9 22 -13 31 119 33 463 2
199 -1 362 -5 362 -4 0 -3 9 3 20 8 16 8 20 -4 20 -8 0 -17 -6 -19 -12 -4 -10
-6 -10 -6 0 -1 7 -17 12 -45 12 -26 0 -46 -5 -49 -12 -4 -10 -6 -10 -6 0 -2
27 -21 10 -21 -19 0 -16 4 -28 8 -25 4 2 8 -4 8 -14 0 -10 -4 -16 -8 -14 -4 3
-8 -2 -8 -10 0 -24 -12 -19 -48 18 -34 36 -109 77 -148 82 -12 1 -36 5 -53 9
-17 4 -31 3 -31 -2z m-17 -30 c-7 -2 -19 -2 -25 0 -7 3 -2 5 12 5 14 0 19 -2
13 -5z m395 0 c-10 -2 -28 -2 -40 0 -13 2 -5 4 17 4 22 1 32 -1 23 -4z m-481
-9 c-3 -3 -12 -4 -19 -1 -8 3 -5 6 6 6 11 1 17 -2 13 -5z m259 -10 c18 -14 18
-14 -6 -3 -31 14 -36 19 -24 19 6 0 19 -7 30 -16z m-213 -1 c-7 -2 -19 -2 -25
0 -7 3 -2 5 12 5 14 0 19 -2 13 -5z m52 -3 c-3 -5 -12 -10 -18 -10 -7 0 -6 4
3 10 19 12 23 12 15 0z m125 0 c8 -5 11 -10 5 -10 -5 0 -17 5 -25 10 -8 5 -10
10 -5 10 6 0 17 -5 25 -10z m-223 -6 c-3 -3 -12 -4 -19 -1 -8 3 -5 6 6 6 11 1
17 -2 13 -5z m180 0 c-3 -3 -12 -4 -19 -1 -8 3 -5 6 6 6 11 1 17 -2 13 -5z
m-69 -31 c-10 -2 -26 -2 -35 0 -10 3 -2 5 17 5 19 0 27 -2 18 -5z m112 0 c-42
-17 -39 -31 8 -49 26 -10 52 -17 57 -15 6 1 7 0 3 -4 -10 -10 24 -45 36 -38 6
3 8 3 4 -2 -4 -4 5 -28 19 -53 23 -38 26 -55 25 -121 -2 -95 -5 -130 -13 -128
-3 1 -18 -13 -34 -31 -24 -28 -25 -33 -9 -30 11 2 20 -4 22 -14 2 -10 -1 -18
-7 -18 -6 0 -8 6 -5 14 6 17 -23 12 -66 -11 -14 -7 -31 -13 -37 -13 -7 0 -13
-4 -13 -9 0 -4 -12 -8 -27 -7 -16 0 -48 -3 -73 -7 -30 -4 -37 -3 -20 2 25 9
25 9 2 10 -29 1 -92 33 -113 57 -9 11 -25 35 -36 55 -11 21 -24 34 -33 31 -12
-3 -12 -2 -2 6 9 6 11 18 6 36 -5 21 -9 24 -15 14 -7 -10 -9 -9 -9 4 0 9 4 18
9 20 5 2 10 21 12 43 1 22 11 58 22 79 16 34 17 43 7 60 -12 18 -11 19 2 9 12
-11 19 -9 36 10 12 13 19 27 15 32 -5 4 -2 5 5 1 7 -4 20 -2 28 5 8 7 36 18
62 26 40 11 42 13 12 10 -19 -2 -44 -7 -55 -11 -13 -5 -11 -2 5 8 29 17 76 21
85 6 10 -16 38 -12 32 4 -4 10 -1 13 7 10 8 -3 17 -1 21 5 3 6 14 11 23 10 14
0 14 -2 2 -6z m20 -33 c8 -5 11 -10 5 -10 -5 0 -17 5 -25 10 -8 5 -10 10 -5
10 6 0 17 -5 25 -10z m85 -40 c3 -5 1 -10 -4 -10 -6 0 -11 5 -11 10 0 6 2 10
4 10 3 0 8 -4 11 -10z m-505 -94 c0 -8 -7 -16 -15 -20 -12 -4 -13 -2 -2 14 14
24 17 25 17 6z m47 -28 c-3 -8 -6 -5 -6 6 -1 11 2 17 5 13 3 -3 4 -12 1 -19z
m532 13 c0 -3 -4 -15 -8 -26 -7 -18 -8 -17 -13 6 -3 17 0 26 9 26 7 0 13 -3
12 -6z m-502 -83 c-2 -13 -4 -3 -4 22 0 25 2 35 4 23 2 -13 2 -33 0 -45z m500
-80 c-3 -8 -6 -5 -6 6 -1 11 2 17 5 13 3 -3 4 -12 1 -19z m0 -60 c-3 -8 -6 -5
-6 6 -1 11 2 17 5 13 3 -3 4 -12 1 -19z m-435 -68 c-2 -3 -7 1 -9 8 -3 6 -8
10 -11 8 -4 -2 -8 7 -9 21 l-1 25 18 -28 c9 -16 15 -31 12 -34z m-118 8 c6 -4
1 -6 -10 -6 -16 2 -20 7 -16 22 4 15 7 17 10 6 3 -8 10 -18 16 -22z m565 -11
c0 -9 -2 -8 -6 1 -2 6 -10 9 -15 6 -7 -4 -8 -2 -4 5 9 13 26 5 25 -12z m-418
-25 c-7 -2 -18 1 -23 6 -8 8 -4 9 13 5 13 -4 18 -8 10 -11z m324 -12 c10 -11
16 -20 13 -20 -3 0 -13 9 -23 20 -10 11 -16 20 -13 20 3 0 13 -9 23 -20z m82
-2 c-3 -8 -6 -5 -6 6 -1 11 2 17 5 13 3 -3 4 -12 1 -19z m-362 -6 c-3 -3 -11
0 -18 7 -9 10 -8 11 6 5 10 -3 15 -9 12 -12z m250 -2 c3 -6 -1 -7 -9 -4 -18 7
-21 14 -7 14 6 0 13 -4 16 -10z m10 -30 c13 -6 15 -9 5 -9 -8 0 -22 4 -30 9
-18 12 -2 12 25 0z m-379 -37 c-7 -7 -26 7 -26 19 0 6 6 6 15 -2 9 -7 13 -15
11 -17z m289 -53 c3 -5 2 -10 -4 -10 -5 0 -13 5 -16 10 -3 6 -2 10 4 10 5 0
13 -4 16 -10z m-102 -17 c-7 -2 -21 -2 -30 0 -10 3 -4 5 12 5 17 0 24 -2 18
-5z m294 -85 c-3 -8 -6 -5 -6 6 -1 11 2 17 5 13 3 -3 4 -12 1 -19z m15 -47
c-5 -3 -11 -13 -14 -21 -3 -10 -6 -6 -10 11 -4 22 -2 25 14 21 11 -3 15 -8 10
-11z m53 -7 c-9 -9 -19 -13 -23 -10 -3 4 0 11 8 16 24 15 33 11 15 -6z m-38
-36 c-3 -8 -6 -5 -6 6 -1 11 2 17 5 13 3 -3 4 -12 1 -19z m-533 -2 c-3 -8 -12
-17 -20 -20 -11 -4 -12 -2 -1 14 14 23 29 27 21 6z m36 -10 c0 -2 -7 -7 -16
-10 -8 -3 -12 -2 -9 4 6 10 25 14 25 6z m157 -52 c-3 -3 -12 -4 -19 -1 -8 3
-5 6 6 6 11 1 17 -2 13 -5z m136 -21 c-7 -2 -19 -2 -25 0 -7 3 -2 5 12 5 14 0
19 -2 13 -5z m147 -30 c0 -2 -22 -14 -50 -27 -41 -20 -51 -22 -61 -10 -9 11
-6 16 16 24 33 13 45 13 25 0 -9 -6 -10 -10 -3 -10 19 0 43 12 39 19 -3 4 4 7
15 7 10 0 19 -2 19 -3z m-440 -13 c18 -12 2 -12 -25 0 -13 6 -15 9 -5 9 8 0
22 -4 30 -9z m76 -8 c-4 -24 -21 -31 -40 -16 -14 10 -16 14 -5 14 11 0 11 2 1
9 -9 5 -4 8 16 7 18 -1 29 -6 28 -14z"/>
<path d="M3428 1813 c7 -3 16 -2 19 1 4 3 -2 6 -13 5 -11 0 -14 -3 -6 -6z"/>
<path d="M3138 1813 c7 -3 16 -2 19 1 4 3 -2 6 -13 5 -11 0 -14 -3 -6 -6z"/>
<path d="M4477 2880 c-115 -20 -237 -114 -284 -217 -73 -159 -37 -373 81 -480
108 -97 247 -132 390 -99 73 17 173 65 202 97 18 20 17 21 -45 91 l-24 27 -36
-29 c-70 -57 -200 -76 -294 -44 -61 21 -125 79 -142 129 -7 22 -11 43 -8 47 2
5 144 8 315 8 l311 0 -5 108 c-4 92 -8 115 -33 166 -71 144 -253 227 -428 196z
m210 -166 c51 -32 82 -81 90 -144 l6 -40 -234 2 -234 3 4 35 c4 44 21 78 59
113 76 72 219 87 309 31z"/>
</g>
</svg>
